<?xml version="1.0" encoding="UTF-8"?>
<svg width="700pt" height="700pt" version="1.1" viewBox="0 0 700 700" xmlns="http://www.w3.org/2000/svg" xmlns:xlink="http://www.w3.org/1999/xlink">
 <defs>
  <symbol id="o" overflow="visible">
   <path d="m31.266-1.875c-1.6172 0.84375-3.2969 1.4766-5.0469 1.8906-1.7422 0.42578-3.5586 0.64062-5.4531 0.64062-5.668 0-10.156-1.582-13.469-4.75-3.3125-3.1641-4.9688-7.4609-4.9688-12.891 0-5.4375 1.6562-9.7383 4.9688-12.906 3.3125-3.1641 7.8008-4.75 13.469-4.75 1.8945 0 3.7109 0.21484 5.4531 0.64062 1.75 0.42969 3.4297 1.0586 5.0469 1.8906v7.0469c-1.625-1.1133-3.2305-1.9258-4.8125-2.4375-1.5742-0.51953-3.2344-0.78125-4.9844-0.78125-3.1367 0-5.6016 1.0078-7.3906 3.0156-1.793 2-2.6875 4.7617-2.6875 8.2812 0 3.5117 0.89453 6.2734 2.6875 8.2812 1.7891 2 4.2539 3 7.3906 3 1.75 0 3.4102-0.25391 4.9844-0.76562 1.582-0.51953 3.1875-1.332 4.8125-2.4375z"/>
  </symbol>
  <symbol id="i" overflow="visible">
   <path d="m22.875-18.578c-0.71094-0.33203-1.418-0.57812-2.125-0.73438-0.71094-0.15625-1.418-0.23438-2.125-0.23438-2.1055 0-3.7266 0.67188-4.8594 2.0156-1.125 1.3438-1.6875 3.2656-1.6875 5.7656v11.766h-8.1562v-25.531h8.1562v4.2031c1.0508-1.6758 2.2539-2.8945 3.6094-3.6562 1.3633-0.76953 2.9922-1.1562 4.8906-1.1562 0.26953 0 0.56641 0.011719 0.89062 0.03125 0.32031 0.023437 0.78516 0.074219 1.3906 0.15625z"/>
  </symbol>
  <symbol id="b" overflow="visible">
   <path d="m29.391-12.828v2.3281h-19.062c0.19531 1.9062 0.88281 3.3398 2.0625 4.2969 1.1875 0.96094 2.8438 1.4375 4.9688 1.4375 1.7188 0 3.4766-0.25391 5.2812-0.76562 1.8008-0.50781 3.6484-1.2812 5.5469-2.3125v6.2969c-1.9297 0.73047-3.8594 1.2773-5.7969 1.6406-1.9297 0.375-3.8555 0.5625-5.7812 0.5625-4.6172 0-8.2031-1.1719-10.766-3.5156s-3.8438-5.6328-3.8438-9.875c0-4.1641 1.2539-7.4414 3.7656-9.8281 2.5195-2.3828 5.9844-3.5781 10.391-3.5781 4.0078 0 7.2188 1.2109 9.625 3.625 2.4062 2.418 3.6094 5.6484 3.6094 9.6875zm-8.375-2.7188c0-1.5391-0.45312-2.7852-1.3594-3.7344-0.90625-0.95703-2.0898-1.4375-3.5469-1.4375-1.5859 0-2.8711 0.44922-3.8594 1.3438-0.98047 0.88672-1.5898 2.1641-1.8281 3.8281z"/>
  </symbol>
  <symbol id="h" overflow="visible">
   <path d="m15.359-11.484c-1.6992 0-2.9805 0.29297-3.8438 0.875-0.85547 0.57422-1.2812 1.4219-1.2812 2.5469 0 1.0312 0.34375 1.8398 1.0312 2.4219 0.69531 0.58594 1.6602 0.875 2.8906 0.875 1.5312 0 2.8164-0.54688 3.8594-1.6406 1.0508-1.1016 1.5781-2.4844 1.5781-4.1406v-0.9375zm12.469-3.0781v14.562h-8.2344v-3.7812c-1.0938 1.5547-2.3242 2.6836-3.6875 3.3906-1.3672 0.69531-3.0273 1.0469-4.9844 1.0469-2.6484 0-4.7969-0.76953-6.4531-2.3125-1.6484-1.5391-2.4688-3.5391-2.4688-6 0-2.9883 1.0312-5.1797 3.0938-6.5781 2.0625-1.4062 5.2969-2.1094 9.7031-2.1094h4.7969v-0.64062c0-1.2891-0.51172-2.2344-1.5312-2.8281-1.0117-0.60156-2.5938-0.90625-4.75-0.90625-1.75 0-3.3828 0.17969-4.8906 0.53125-1.5 0.34375-2.8984 0.86719-4.1875 1.5625v-6.2188c1.75-0.42578 3.5039-0.75 5.2656-0.96875 1.7578-0.21875 3.5234-0.32812 5.2969-0.32812 4.5938 0 7.9102 0.91406 9.9531 2.7344 2.0508 1.8125 3.0781 4.7617 3.0781 8.8438z"/>
  </symbol>
  <symbol id="g" overflow="visible">
   <path d="m12.828-32.766v7.2344h8.4062v5.8438h-8.4062v10.828c0 1.1797 0.23438 1.9805 0.70312 2.4062 0.47656 0.41797 1.4141 0.625 2.8125 0.625h4.1875v5.8281h-7c-3.2188 0-5.5-0.67188-6.8438-2.0156s-2.0156-3.625-2.0156-6.8438v-10.828h-4.0625v-5.8438h4.0625v-7.2344z"/>
  </symbol>
  <symbol id="f" overflow="visible">
   <path d="m21.281-21.781v-13.672h8.2031v35.453h-8.2031v-3.6875c-1.125 1.5-2.3672 2.6016-3.7188 3.2969-1.3438 0.69531-2.9062 1.0469-4.6875 1.0469-3.1484 0-5.7305-1.25-7.75-3.75-2.0234-2.5-3.0312-5.7109-3.0312-9.6406 0-3.9375 1.0078-7.1562 3.0312-9.6562 2.0195-2.5 4.6016-3.75 7.75-3.75 1.7578 0 3.3164 0.35547 4.6719 1.0625 1.3633 0.71094 2.6094 1.8086 3.7344 3.2969zm-5.375 16.516c1.75 0 3.082-0.63281 4-1.9062 0.91406-1.2812 1.375-3.1328 1.375-5.5625 0-2.4375-0.46094-4.2891-1.375-5.5625-0.91797-1.2812-2.25-1.9219-4-1.9219-1.7305 0-3.0586 0.64062-3.9844 1.9219-0.91797 1.2734-1.375 3.125-1.375 5.5625 0 2.4297 0.45703 4.2812 1.375 5.5625 0.92578 1.2734 2.2539 1.9062 3.9844 1.9062z"/>
  </symbol>
  <symbol id="e" overflow="visible">
   <path d="m17.5-5.2656c1.75 0 3.082-0.63281 4-1.9062 0.91406-1.2812 1.375-3.1328 1.375-5.5625 0-2.4375-0.46094-4.2891-1.375-5.5625-0.91797-1.2812-2.25-1.9219-4-1.9219s-3.0938 0.64844-4.0312 1.9375c-0.92969 1.2812-1.3906 3.1328-1.3906 5.5469 0 2.418 0.46094 4.2656 1.3906 5.5469 0.9375 1.2812 2.2812 1.9219 4.0312 1.9219zm-5.4219-16.516c1.125-1.4883 2.3672-2.5859 3.7344-3.2969 1.3633-0.70703 2.9375-1.0625 4.7188-1.0625 3.1445 0 5.7266 1.25 7.75 3.75 2.0195 2.5 3.0312 5.7188 3.0312 9.6562 0 3.9297-1.0117 7.1406-3.0312 9.6406-2.0234 2.5-4.6055 3.75-7.75 3.75-1.7812 0-3.3555-0.35156-4.7188-1.0469-1.3672-0.70703-2.6094-1.8047-3.7344-3.2969v3.6875h-8.1562v-35.453h8.1562z"/>
  </symbol>
  <symbol id="a" overflow="visible">
   <path d="m0.5625-25.531h8.1719l6.8594 17.328 5.8281-17.328h8.1562l-10.734 27.953c-1.0742 2.832-2.3281 4.8164-3.7656 5.9531-1.4375 1.1328-3.3359 1.7031-5.6875 1.7031h-4.7188v-5.3594h2.5469c1.3828 0 2.3906-0.22656 3.0156-0.67188 0.63281-0.4375 1.1289-1.2266 1.4844-2.3594l0.21875-0.70312z"/>
  </symbol>
  <symbol id="d" overflow="visible">
   <path d="m4.2812-34.031h8.7812v30.734c0 4.2266-1.1523 7.3906-3.4531 9.4844-2.3047 2.1016-5.7891 3.1562-10.453 3.1562h-1.7812v-6.625h1.375c1.8203 0 3.1953-0.51172 4.125-1.5312 0.9375-1.0234 1.4062-2.5156 1.4062-4.4844z"/>
  </symbol>
  <symbol id="n" overflow="visible">
   <path d="m3.6406-9.9375v-15.594h8.2031v2.5625c0 1.3867-0.007812 3.125-0.015625 5.2188-0.011719 2.0859-0.015625 3.4766-0.015625 4.1719 0 2.0547 0.050781 3.5312 0.15625 4.4375 0.10156 0.89844 0.28516 1.5547 0.54688 1.9688 0.33203 0.53125 0.76562 0.94531 1.2969 1.2344 0.53906 0.28125 1.1602 0.42188 1.8594 0.42188 1.707 0 3.0469-0.64844 4.0156-1.9531 0.96875-1.3125 1.4531-3.1289 1.4531-5.4531v-12.609h8.1719v25.531h-8.1719v-3.6875c-1.2305 1.4922-2.5312 2.5898-3.9062 3.2969-1.375 0.69531-2.8906 1.0469-4.5469 1.0469-2.9492 0-5.1953-0.89844-6.7344-2.7031-1.543-1.8125-2.3125-4.4414-2.3125-7.8906z"/>
  </symbol>
  <symbol id="c" overflow="visible">
   <path d="m3.9219-25.531h8.1562v25.531h-8.1562zm0-9.9219h8.1562v6.6406h-8.1562z"/>
  </symbol>
  <symbol id="m" overflow="visible">
   <path d="m24.547-24.719v6.6406c-1.1172-0.75781-2.2305-1.3203-3.3438-1.6875-1.1172-0.36328-2.2734-0.54688-3.4688-0.54688-2.2812 0-4.0586 0.66797-5.3281 2-1.2734 1.3359-1.9062 3.1953-1.9062 5.5781 0 2.3867 0.63281 4.2461 1.9062 5.5781 1.2695 1.3242 3.0469 1.9844 5.3281 1.9844 1.2695 0 2.4766-0.1875 3.625-0.5625 1.1445-0.38281 2.207-0.94531 3.1875-1.6875v6.6719c-1.2812 0.46875-2.5781 0.81641-3.8906 1.0469-1.3125 0.23828-2.6328 0.35938-3.9531 0.35938-4.6055 0-8.2109-1.1758-10.812-3.5312-2.5938-2.3633-3.8906-5.6484-3.8906-9.8594 0-4.207 1.2969-7.4922 3.8906-9.8594 2.6016-2.3633 6.207-3.5469 10.812-3.5469 1.332 0 2.6484 0.12109 3.9531 0.35938 1.3008 0.23047 2.5977 0.58594 3.8906 1.0625z"/>
  </symbol>
  <symbol id="l" overflow="visible">
   <path d="m4.2812-34.031h23.688v6.6406h-14.906v6.3281h14.016v6.6406h-14.016v14.422h-8.7812z"/>
  </symbol>
  <symbol id="k" overflow="visible">
   <path d="m23.859-24.719v6.1875c-1.75-0.72656-3.4375-1.2734-5.0625-1.6406-1.625-0.36328-3.1562-0.54688-4.5938-0.54688-1.5547 0-2.7109 0.19922-3.4688 0.59375-0.75 0.38672-1.125 0.98047-1.125 1.7812 0 0.65625 0.28516 1.1641 0.85938 1.5156 0.57031 0.34375 1.5938 0.60156 3.0625 0.76562l1.4375 0.20312c4.1758 0.53125 6.9844 1.4062 8.4219 2.625 1.4453 1.2109 2.1719 3.1172 2.1719 5.7188 0 2.7188-1.0078 4.7617-3.0156 6.125-2 1.3672-4.9922 2.0469-8.9688 2.0469-1.6875 0-3.4336-0.13672-5.2344-0.40625-1.793-0.25781-3.6406-0.65625-5.5469-1.1875v-6.2031c1.625 0.79297 3.2891 1.3867 5 1.7812 1.7188 0.39844 3.457 0.59375 5.2188 0.59375 1.5938 0 2.7891-0.21875 3.5938-0.65625 0.8125-0.4375 1.2188-1.0938 1.2188-1.9688 0-0.72656-0.28125-1.2695-0.84375-1.625-0.55469-0.35156-1.6562-0.62891-3.3125-0.82812l-1.4375-0.1875c-3.625-0.44531-6.168-1.2852-7.625-2.5156-1.4609-1.2383-2.1875-3.1094-2.1875-5.6094 0-2.707 0.92188-4.7109 2.7656-6.0156 1.8516-1.3125 4.6953-1.9688 8.5312-1.9688 1.5 0 3.0781 0.11719 4.7344 0.34375 1.6562 0.23047 3.457 0.58984 5.4062 1.0781z"/>
  </symbol>
  <symbol id="j" overflow="visible">
   <path d="m29.578-15.547v15.547h-8.2031v-11.844c0-2.2383-0.054688-3.7734-0.15625-4.6094-0.09375-0.83203-0.26172-1.4453-0.5-1.8438-0.32422-0.53125-0.76172-0.94141-1.3125-1.2344-0.54297-0.30078-1.1641-0.45312-1.8594-0.45312-1.6992 0-3.0391 0.65625-4.0156 1.9688-0.96875 1.3125-1.4531 3.1328-1.4531 5.4531v12.562h-8.1562v-35.453h8.1562v13.672c1.2266-1.4883 2.5352-2.5859 3.9219-3.2969 1.3828-0.70703 2.9102-1.0625 4.5781-1.0625 2.9453 0 5.1797 0.90625 6.7031 2.7188 1.5312 1.8047 2.2969 4.4297 2.2969 7.875z"/>
  </symbol>
 </defs>
 <g>
  <path d="m592.67 0h-485.34c-9.8984 0-19.395 3.9336-26.398 10.934-7 7.0039-10.934 16.5-10.934 26.398v373.34c0 9.8984 3.9336 19.395 10.934 26.398 7.0039 7 16.5 10.934 26.398 10.934h130.67v22.586l-60.668 34.645c-0.4375 0.29688-0.85156 0.63281-1.2305 1-0.32812 0.22656-0.63672 0.47266-0.93359 0.73828-0.70703 0.74219-1.2812 1.5977-1.707 2.5273 0 0.085937-0.10156 0.14062-0.14063 0.22266v0.003906c-0.42578 1.0547-0.65234 2.1758-0.67187 3.3125 0 0.10156-0.054688 0.19531-0.054688 0.29688v28c0 4.9531 1.9648 9.6992 5.4648 13.199 3.5 3.5039 8.25 5.4688 13.199 5.4688h317.41c4.9492 0 9.6992-1.9648 13.199-5.4688 3.5-3.5 5.4648-8.2461 5.4648-13.199v-28c0-0.10156-0.054687-0.1875-0.054687-0.28906-0.019532-1.1367-0.24609-2.2656-0.67188-3.3203 0-0.085937-0.11328-0.14844-0.14844-0.23438-0.42188-0.92969-0.99609-1.7812-1.6992-2.5195-0.29687-0.26953-0.60937-0.51562-0.93359-0.74609-0.37891-0.36328-0.78906-0.69531-1.2227-0.99219l-60.602-34.645v-22.586h130.67c9.8984 0 19.395-3.9336 26.398-10.934 7-7.0039 10.934-16.5 10.934-26.398v-373.34c0-9.8984-3.9336-19.395-10.934-26.398-7.0039-7-16.5-10.934-26.398-10.934zm-485.34 18.668h485.34c4.9492 0 9.6992 1.9648 13.199 5.4648s5.4648 8.25 5.4648 13.199v317.34h-522.66v-317.34c0-4.9492 1.9648-9.6992 5.4648-13.199s8.25-5.4648 13.199-5.4648zm84 522.67v-18.668h317.34v18.668zm25.816-37.332 32.668-18.668 200.37-0.003907 32.668 18.668zm226.18-37.336h-186.66v-18.668h186.66zm149.33-37.332-485.33-0.003907c-4.9492 0-9.6992-1.9648-13.199-5.4648s-5.4648-8.25-5.4648-13.199v-37.336h522.66v37.336c0 4.9492-1.9648 9.6992-5.4648 13.199s-8.25 5.4648-13.199 5.4648z"/>
  <path d="m350 214.67c7.4258 0 14.547-2.9531 19.801-8.2031 5.25-5.25 8.1992-12.371 8.1992-19.797s-2.9492-14.551-8.1992-19.801c-5.2539-5.25-12.375-8.1992-19.801-8.1992s-14.547 2.9492-19.801 8.1992c-5.25 5.25-8.1992 12.375-8.1992 19.801s2.9492 14.547 8.1992 19.797c5.2539 5.25 12.375 8.2031 19.801 8.2031zm0-37.332v-0.003907c3.7734 0 7.1797 2.2734 8.6211 5.7617 1.4453 3.4883 0.64844 7.5039-2.0195 10.172-2.6719 2.6719-6.6875 3.4688-10.172 2.0234-3.4883-1.4453-5.7617-4.8477-5.7617-8.6211 0-5.1562 4.1758-9.3359 9.332-9.3359z"/>
  <path d="m228.67 280c6.9102-0.019531 13.562-2.6094 18.664-7.2695 6.6562 1.2773 13.422 1.9258 20.199 1.9414 7.125-0.0625 14.242-0.56641 21.309-1.5117 13.383 38.227 35.551 62.84 61.16 62.84s47.805-24.641 61.199-62.898c6.957 0.91406 13.965 1.4023 20.98 1.457 16.719 1.2734 33.34-3.4766 46.863-13.395 0.54297 0 1.0625 0.16797 1.625 0.16797 10.004 0 19.246-5.3359 24.246-14 5.0039-8.6602 5.0039-19.336 0-28-5-8.6602-14.242-14-24.246-14-0.4375 0-0.85938 0.11328-1.2969 0.12891v0.003906c-4.4141-6.7227-9.4453-13.016-15.027-18.797 9.8633-9.7578 17.641-21.422 22.855-34.281 3.9258-9.6367 3.7695-20.453-0.42969-29.973-10.266-21.344-39.891-26.891-75.602-22.242-13.383-38.227-35.559-62.84-61.168-62.84-7.2852 0.054688-14.434 1.9844-20.758 5.6016-4.7734-3.6094-10.59-5.5742-16.574-5.6016-7.6445-0.035156-14.965 3.0703-20.254 8.5859-5.2891 5.5156-8.082 12.961-7.7227 20.594 0.35547 7.6328 3.8281 14.785 9.6055 19.785-1.9688 4.4141-3.8281 9.0078-5.5156 13.871-35.652-4.668-65.25 0.93359-75.516 22.223v-0.003906c-4.2031 9.5273-4.3633 20.352-0.4375 30 5.2188 12.855 13 24.52 22.867 34.281-12.609 11.895-21.387 27.281-25.199 44.191-5.8555 4.9648-9.4023 12.121-9.8086 19.785-0.40625 7.6641 2.3633 15.156 7.6602 20.711 5.293 5.5547 12.645 8.6836 20.32 8.6445zm-9.332-28h-0.003907c0-3.7734 2.2734-7.1797 5.7617-8.6211 3.4883-1.4453 7.5039-0.64844 10.172 2.0195 2.6719 2.6719 3.4688 6.6875 2.0234 10.172-1.4453 3.4883-4.8477 5.7617-8.6211 5.7617-5.1562 0-9.3359-4.1758-9.3359-9.332zm36.996 3.3516c0.17578-1.1094 0.28906-2.2305 0.33594-3.3516-0.023438-6.8945-2.5898-13.535-7.2148-18.648-4.6211-5.1133-10.973-8.3398-17.828-9.0547 4.3516-9.1992 10.23-17.594 17.387-24.824 8.9492 7.7695 18.398 14.941 28.289 21.465 1.2734 11.512 3.3203 22.926 6.125 34.16-8.9961 1.0781-18.082 1.1641-27.094 0.25391zm73.133-110.82c6.9609-3.2656 13.777-6.1211 20.535-8.7734 6.7188 2.6523 13.535 5.5078 20.535 8.7734 11.824 5.5312 23.32 11.742 34.43 18.602 0.67188 7.8516 1.0352 15.746 1.0352 23.531 0 7.7852-0.36328 15.652-1.0625 23.492-11.113 6.8828-22.617 13.113-34.449 18.664-6.832 3.2031-13.664 6.0742-20.469 8.7461-6.7383-2.6328-13.57-5.4961-20.535-8.7461-11.832-5.5508-23.336-11.781-34.449-18.664-0.67188-7.8398-1.0352-15.727-1.0352-23.492 0-7.9688 0.40234-15.867 1.0352-23.566 11.113-6.8438 22.609-13.039 34.43-18.566zm-31.508-4.7891c1.1016-6.3945 2.3906-12.617 3.9219-18.562 6.9531 1.418 14.242 3.2383 21.82 5.4883-0.71094 0.32812-1.4453 0.625-2.1484 0.93359-8.168 3.8516-16.02 7.8984-23.555 12.141zm78.262-13.066c7.4648-2.2109 14.633-4.0039 21.465-5.4219 1.5391 5.9648 2.9102 12.133 4.043 18.426-7.4648-4.2188-15.309-8.2695-23.379-12.051-0.64453-0.33594-1.375-0.63281-2.0938-0.96094zm48.16 49.598c4.6094 3.4141 8.9453 6.8672 13 10.352-4.0508 3.4609-8.3828 6.9023-13 10.324 0.11328-3.4062 0.25391-6.8047 0.25391-10.266-0.003906-3.4648-0.10547-6.9727-0.21875-10.418zm-22.625 57.383c-1.1094 6.2617-2.4844 12.348-4.0039 18.266-6.8398-1.3828-14-3.1445-21.41-5.3125 0.67969-0.31641 1.3633-0.58984 2.043-0.93359 8.1289-3.7773 15.914-7.8203 23.406-12.027zm-78.195 12.945c-7.2891 2.1484-14.465 4.043-21.355 5.4609-1.5312-5.9648-2.9102-12.133-4.0312-18.406 7.4648 4.2109 15.289 8.2617 23.332 12.059 0.75781 0.29688 1.4297 0.57031 2.0938 0.87891zm-47.973-49.672c-4.6172-3.4141-8.957-6.8594-13.02-10.332 3.9961-3.4453 8.3516-6.9062 13.066-10.359-0.16016 3.4727-0.30078 6.9336-0.30078 10.426 0 3.4883 0.14062 6.8672 0.25391 10.266zm74.414 120.4c-17.613 0-32.32-19.691-42.262-47.367 14.367-3.0977 28.492-7.2305 42.262-12.363 13.766 5.1367 27.887 9.2695 42.254 12.363-9.9219 27.664-24.633 47.367-42.254 47.367zm140-84c0 3.7773-2.2734 7.1797-5.7617 8.625-3.4883 1.4453-7.5039 0.64453-10.172-2.0234-2.668-2.668-3.4688-6.6836-2.0234-10.172 1.4453-3.4883 4.8477-5.7617 8.625-5.7617 2.4727 0 4.8477 0.98438 6.5977 2.7344s2.7344 4.125 2.7344 6.5977zm-37.332 0c0.027343 6.6953 2.4727 13.156 6.8867 18.191-13.832 4.5586-28.562 5.707-42.934 3.3516 2.7773-11.18 4.8125-22.535 6.0859-33.984 9.8789-6.5 19.316-13.648 28.25-21.398 3.9414 4.1602 7.5664 8.6094 10.848 13.309-5.8008 5.2539-9.1172 12.707-9.1367 20.531zm17.277-102.8h-0.003906c1.9766 5.043 1.8477 10.668-0.36328 15.617-4.3008 10.379-10.648 19.789-18.668 27.664-8.9375-7.7461-18.375-14.898-28.25-21.402-1.2773-11.52-3.3242-22.941-6.1328-34.188 28.301-3.1172 48.215 1.5312 53.414 12.309zm-157.28-74.535c3.7734 0 7.1758 2.2734 8.6211 5.7617 1.4453 3.4883 0.64844 7.5039-2.0234 10.172-2.668 2.668-6.6836 3.4688-10.172 2.0234-3.4883-1.4453-5.7617-4.8477-5.7617-8.625 0-5.1523 4.1797-9.332 9.3359-9.332zm-1.0156 37.23c0.34375 0 0.67188 0.10156 1.0156 0.10156 7.4258 0 14.547-2.9492 19.797-8.1992s8.2031-12.375 8.2031-19.801c-0.03125-2.2891-0.34375-4.5625-0.93359-6.7734 3.1836-1.6133 6.6953-2.4883 10.266-2.5586 17.641 0 32.367 19.75 42.309 47.496-14.371 3.125-28.512 7.25-42.309 12.34-13.867-5.1172-28.078-9.2539-42.523-12.387 1.3086-3.582 2.6992-6.9531 4.1719-10.219zm-81.574 37.285c5.1875-10.781 25.117-15.43 53.406-12.281h-0.003906c-2.7773 11.227-4.8281 22.621-6.1328 34.113-9.9023 6.5117-19.355 13.684-28.297 21.469-8.0234-7.8711-14.371-17.281-18.668-27.664-2.1992-4.9609-2.3125-10.594-0.30859-15.637z"/>
  <path d="m368.67 392h-37.336c-5.1523 0-9.332 4.1797-9.332 9.332 0 5.1562 4.1797 9.3359 9.332 9.3359h37.336c5.1523 0 9.332-4.1797 9.332-9.3359 0-5.1523-4.1797-9.332-9.332-9.332z"/>
  <use x="70" y="700" xlink:href="#o"/>
  <use x="104.25" y="700" xlink:href="#i"/>
  <use x="127.261719" y="700" xlink:href="#b"/>
  <use x="158.914062" y="700" xlink:href="#h"/>
  <use x="190.402344" y="700" xlink:href="#g"/>
  <use x="212.710937" y="700" xlink:href="#b"/>
  <use x="244.363281" y="700" xlink:href="#f"/>
  <use x="294.015625" y="700" xlink:href="#e"/>
  <use x="327.417969" y="700" xlink:href="#a"/>
  <use x="374.085938" y="700" xlink:href="#d"/>
  <use x="391.449219" y="700" xlink:href="#n"/>
  <use x="424.671875" y="700" xlink:href="#c"/>
  <use x="440.667969" y="700" xlink:href="#m"/>
  <use x="468.328125" y="700" xlink:href="#a"/>
  <use x="514.996094" y="700" xlink:href="#l"/>
  <use x="546.875" y="700" xlink:href="#c"/>
  <use x="562.871094" y="700" xlink:href="#k"/>
  <use x="590.648438" y="700" xlink:href="#j"/>
 </g>
</svg>
